<svg id="color" enable-background="new 0 0 24 24" height="512" viewBox="0 0 24 24" width="512" xmlns="http://www.w3.org/2000/svg"><path d="m10.5 14h-7c-.276 0-.5-.224-.5-.5v-2c0-1.379 1.121-2.5 2.5-2.5h3c1.379 0 2.5 1.121 2.5 2.5v2c0 .276-.224.5-.5.5z" fill="#2196f3"/><path d="m11.5 13.5h-9c-.27 0-.523.228-.5.55l1 9.5c.03.26.24.45.5.45h4.55c-.26-1.388.137-3.207 1.681-4.29-.141-.38-.231-.78-.231-1.21 0-1.54 1-2.85 2.38-3.31l.12-1.14c.023-.321-.23-.55-.5-.55z" fill="#90a4ae"/><path d="m13 15h-12c-.553 0-1-.447-1-1s.447-1 1-1h12c.553 0 1 .447 1 1s-.447 1-1 1z" fill="#607d8b"/><path d="m7 8c-1.103 0-2-.896-2-2s.896-2 2-2 2 .896 2 2-.896 2-2 2z" fill="#2196f3"/><path d="m7 9h-1.5c-1.379 0-2.5 1.121-2.5 2.5v1.5h4z" fill="#1d83d4"/><path d="m7 15h-4.9l.9 8.55c.03.26.24.45.5.45h3.5z" fill="#7d8f97"/><path d="m7 13h-4-2c-.553 0-1 .447-1 1s.447 1 1 1h1.1 4.9z" fill="#546d79"/><path d="m7 4c-1.103 0-2 .896-2 2s.896 2 2 2z" fill="#1d83d4"/><path d="m18 0c-3.309 0-6 2.691-6 6s2.691 6 6 6 6-2.691 6-6-2.691-6-6-6zm3.738 3.5h-1.238v-1.238c.489.328.91.749 1.238 1.238zm.762 2.5c0 .345-.047.678-.121 1h-1.879v-2h1.879c.074.322.121.655.121 1zm-9 0c0-.345.047-.678.121-1h1.879v2h-1.879c-.074-.322-.121-.655-.121-1zm3.5-1h2v2h-2zm2-3.379v1.879h-2v-1.879c.322-.074.655-.121 1-.121s.678.047 1 .121zm-3.5.641v1.238h-1.238c.328-.489.749-.91 1.238-1.238zm-1.238 6.238h1.238v1.238c-.489-.328-.91-.749-1.238-1.238zm2.738 1.879v-1.879h2v1.879c-.322.074-.655.121-1 .121s-.678-.047-1-.121zm3.5-.641v-1.238h1.238c-.328.489-.749.91-1.238 1.238z" fill="#ffc107"/><g fill="#4caf50"><path d="m21 20c-.827 0-1.5-.673-1.5-1.5s.673-1.5 1.5-1.5 1.5.673 1.5 1.5-.673 1.5-1.5 1.5z"/><path d="m23.5 24h-5c-.276 0-.5-.224-.5-.5v-.5c0-1.104.896-2 2-2h2c1.103 0 2 .896 2 2v.5c0 .276-.224.5-.5.5z"/><path d="m13 20c-.827 0-1.5-.673-1.5-1.5s.673-1.5 1.5-1.5 1.5.673 1.5 1.5-.673 1.5-1.5 1.5z"/><path d="m15.5 24h-5c-.276 0-.5-.224-.5-.5v-.5c0-1.104.896-2 2-2h2c1.104 0 2 .896 2 2v.5c0 .276-.224.5-.5.5z"/></g><path d="m13 17c-.827 0-1.5.673-1.5 1.5s.673 1.5 1.5 1.5z" fill="#429846"/><path d="m13 21h-1c-1.104 0-2 .896-2 2v.5c0 .276.224.5.5.5h2.5z" fill="#429846"/><path d="m21 17c-.827 0-1.5.673-1.5 1.5s.673 1.5 1.5 1.5z" fill="#429846"/><path d="m21 21h-1c-1.104 0-2 .896-2 2v.5c0 .276.224.5.5.5h2.5z" fill="#429846"/><path d="m15.5 9.738c-.489-.328-.91-.749-1.238-1.238h1.238zm-1.879-2.738c-.074-.322-.121-.655-.121-1s.047-.678.121-1h1.879v2zm.641-3.5c.328-.489.749-.91 1.238-1.238v1.238zm3.738-3.5c-3.309 0-6 2.691-6 6s2.691 6 6 6v-1.5c-.345 0-.678-.047-1-.121v-1.879h1v-1.5h-1v-2h1v-1.5h-1v-1.879c.322-.074.655-.121 1-.121z" fill="#dea806"/></svg>